<svg width="56" height="56" viewBox="0 0 56 56" fill="none" xmlns="http://www.w3.org/2000/svg">
<path fill-rule="evenodd" clip-rule="evenodd" d="M27.9998 7.80005C16.8302 7.80005 7.7998 16.8903 7.7998 28C7.7998 33.3574 9.92801 38.4954 13.7162 42.2836C15.592 44.1593 17.8188 45.6473 20.2696 46.6624C22.7204 47.6776 25.3471 48.2 27.9998 48.2C33.3572 48.2 38.4951 46.0718 42.2834 42.2836C46.0716 38.4954 48.1998 33.3574 48.1998 28C48.1998 25.3473 47.6773 22.7206 46.6622 20.2698C45.647 17.8191 44.1591 15.5922 42.2834 13.7165C40.4076 11.8407 38.1808 10.3528 35.73 9.33768C33.2792 8.32254 30.6525 7.80005 27.9998 7.80005ZM44.2538 32.2H37.9616H37.1558L36.3616 32.1038C36.5279 30.7322 36.6498 29.382 36.6498 28C36.6498 26.618 36.5279 25.2679 36.3616 23.8963L36.253 23H44.8784L45.0299 23.606C45.3786 25.0009 45.5998 26.4738 45.5998 28C45.5998 29.5263 45.3786 30.9992 45.0299 32.3941L44.2538 32.2ZM32.735 43.4956L31.7596 45.3003L33.6992 44.6325C37.7116 43.2511 41.0925 40.4714 43.2236 36.8018L43.9215 35.6H35.7158L35.5618 36.2016C34.9049 38.7678 33.9618 41.2261 32.735 43.4956ZM22.2948 32.3199L22.3979 33H33.6121L33.7065 32.3081C33.8973 30.9086 34.0498 29.4813 34.0498 28C34.0498 26.5193 33.8975 25.0713 33.7062 23.6903L33.6107 23H22.3995L22.2951 23.6784C22.0799 25.0772 21.9498 26.5253 21.9498 28C21.9498 29.4756 22.0801 30.9024 22.2948 32.3199ZM27.3419 45.1711L27.9998 46.1224L28.6578 45.1711C30.4429 42.5902 31.8915 39.7189 32.7798 36.6205L33.0724 35.6H22.9272L23.2198 36.6205C24.1081 39.7189 25.5567 42.5902 27.3419 45.1711ZM12.7737 19.2022L12.0871 20.4H20.2066L20.3702 19.8158C21.0933 17.2331 22.0183 14.7711 23.2436 12.5045L24.2142 10.7088L22.2819 11.3667C18.2647 12.7346 14.8842 15.5205 12.7737 19.2022ZM20.3702 36.1843L20.2066 35.6H12.0807L12.7753 36.8007C14.8979 40.4695 18.2721 43.25 22.2789 44.6323L24.2199 45.3019L23.2436 43.4956C22.0183 41.2289 21.0933 38.767 20.3702 36.1843ZM19.638 23.8963L19.7466 23H11.1212L10.9697 23.606C10.621 25.0009 10.3998 26.4738 10.3998 28C10.3998 29.5263 10.621 30.9992 10.9697 32.3941L11.7672 32.2963L18.038 32.2H18.8438L19.638 32.1038C19.4717 30.7322 19.3498 29.382 19.3498 28C19.3498 26.618 19.4717 25.2679 19.638 23.8963ZM28.6578 10.808L27.9998 9.85671L27.3419 10.808C25.5557 13.3903 24.1077 16.2826 23.2198 19.3796L22.9272 20.4H33.0724L32.7798 19.3796C31.8919 16.2826 30.4439 13.3903 28.6578 10.808ZM35.5612 19.796L35.7138 20.4H43.9186L43.2243 19.1995C41.1123 15.5475 37.7459 12.7532 33.6979 11.3672L31.7718 10.7077L32.7337 12.502C33.9704 14.8089 34.9199 17.2584 35.5612 19.796Z" fill="#0E2B3A"/>
</svg>
