<svg width="56" height="56" viewBox="0 0 56 56" fill="none" xmlns="http://www.w3.org/2000/svg">
<path d="M28 17.9375C26.0098 17.9375 24.0643 18.5277 22.4096 19.6333C20.7548 20.739 19.4651 22.3106 18.7035 24.1492C17.9419 25.9879 17.7426 28.0112 18.1308 29.9631C18.5191 31.915 19.4775 33.708 20.8847 35.1153C22.292 36.5225 24.085 37.4809 26.0369 37.8692C27.9888 38.2574 30.0121 38.0581 31.8508 37.2965C33.6894 36.5349 35.261 35.2452 36.3667 33.5904C37.4723 31.9357 38.0625 29.9902 38.0625 28C38.0625 25.3313 37.0023 22.7718 35.1153 20.8847C33.2282 18.9977 30.6687 17.9375 28 17.9375ZM28 35.4375C26.529 35.4375 25.091 35.0013 23.8679 34.1841C22.6449 33.3668 21.6916 32.2052 21.1286 30.8462C20.5657 29.4872 20.4184 27.9917 20.7054 26.549C20.9924 25.1063 21.7007 23.781 22.7409 22.7409C23.781 21.7007 25.1063 20.9924 26.549 20.7054C27.9917 20.4184 29.4872 20.5657 30.8462 21.1286C32.2052 21.6916 33.3668 22.6449 34.1841 23.8679C35.0013 25.091 35.4375 26.529 35.4375 28C35.4317 29.9708 34.6463 31.8592 33.2527 33.2527C31.8592 34.6463 29.9708 35.4317 28 35.4375ZM37.625 6.5625H18.375C15.2421 6.5625 12.2376 7.80703 10.0223 10.0223C7.80703 12.2376 6.5625 15.2421 6.5625 18.375V37.625C6.5625 40.7579 7.80703 43.7624 10.0223 45.9777C12.2376 48.193 15.2421 49.4375 18.375 49.4375H37.625C40.7579 49.4375 43.7624 48.193 45.9777 45.9777C48.193 43.7624 49.4375 40.7579 49.4375 37.625V18.375C49.4375 15.2421 48.193 12.2376 45.9777 10.0223C43.7624 7.80703 40.7579 6.5625 37.625 6.5625ZM46.8125 37.625C46.8125 40.0617 45.8445 42.3986 44.1215 44.1215C42.3986 45.8445 40.0617 46.8125 37.625 46.8125H18.375C15.9383 46.8125 13.6014 45.8445 11.8785 44.1215C10.1555 42.3986 9.1875 40.0617 9.1875 37.625V18.375C9.1875 15.9383 10.1555 13.6014 11.8785 11.8785C13.6014 10.1555 15.9383 9.1875 18.375 9.1875H37.625C40.0617 9.1875 42.3986 10.1555 44.1215 11.8785C45.8445 13.6014 46.8125 15.9383 46.8125 18.375V37.625ZM41.5625 16.625C41.5625 17.0576 41.4342 17.4806 41.1938 17.8403C40.9535 18.2 40.6118 18.4804 40.2121 18.646C39.8124 18.8116 39.3726 18.8549 38.9482 18.7705C38.5239 18.6861 38.1341 18.4777 37.8282 18.1718C37.5223 17.8659 37.3139 17.4761 37.2295 17.0518C37.1451 16.6274 37.1884 16.1876 37.354 15.7879C37.5196 15.3882 37.8 15.0465 38.1597 14.8062C38.5194 14.5658 38.9424 14.4375 39.375 14.4375C39.9552 14.4375 40.5116 14.668 40.9218 15.0782C41.332 15.4884 41.5625 16.0448 41.5625 16.625Z" fill="#0E2B3A"/>
</svg>
